<?xml version="1.0" encoding="UTF-8" standalone="no"?>
<!DOCTYPE svg PUBLIC "-//W3C//DTD SVG 1.1//EN" "http://www.w3.org/Graphics/SVG/1.1/DTD/svg11.dtd">
<svg width="100%" height="100%" viewBox="0 0 578 660" version="1.1" xmlns="http://www.w3.org/2000/svg" xmlns:xlink="http://www.w3.org/1999/xlink" xml:space="preserve" xmlns:serif="http://www.serif.com/" style="fill-rule:evenodd;clip-rule:evenodd;stroke-miterlimit:10;">
    <g transform="matrix(1,0,0,1,-1065.246513,-86.998596)">
        <g id="Page-2" serif:id="Page 2" transform="matrix(4.166667,0,0,4.166667,937.5,0)">
            <rect x="0" y="0" width="200" height="200" style="fill:none;"/>
            <g id="Layer-1" serif:id="Layer 1">
                <g transform="matrix(1,0,0,1,162.2205,64)">
                    <path d="M0,72L0,0L-62.22,-36L-124.441,0L-124.441,72L-62.22,108L0,72Z" style="fill:none;fill-rule:nonzero;stroke:rgb(26,178,75);stroke-width:1.42px;"/>
                </g>
                <g transform="matrix(1,0,0,1,162.22,147.52)">
                    <path d="M0,-83.52L0,-11.52L-62.22,24.48L-89.34,8.79L-87.74,4.8L-62.22,19.56L-4.25,-13.98L-4.25,-81.07L-43.91,-104.01L-42.3,-108L0,-83.52Z" style="fill:rgb(50,109,65);fill-rule:nonzero;"/>
                </g>
                <g transform="matrix(1,0,0,1,119.92,144.79)">
                    <path d="M0,-105.27L-1.61,-101.28L-19.92,-111.88L-77.89,-78.34L-77.89,-11.25L-45.44,7.53L-47.04,11.52L-82.14,-8.79L-82.14,-80.79L-19.92,-116.79L0,-105.27Z" style="fill:rgb(156,76,95);fill-rule:nonzero;"/>
                </g>
                <g transform="matrix(1,0,0,1,49.1285,117.7754)">
                    <path d="M0,7.021C-0.425,7.021 -0.802,6.984 -1.13,6.909C-1.459,6.834 -1.745,6.734 -1.986,6.609L-1.986,5.259C-1.711,5.426 -1.412,5.559 -1.087,5.66C-0.762,5.759 -0.429,5.809 -0.087,5.809C0.163,5.809 0.381,5.778 0.568,5.715C0.756,5.653 0.904,5.561 1.012,5.441C1.12,5.32 1.174,5.172 1.174,4.998C1.174,4.856 1.145,4.733 1.087,4.628C1.029,4.525 0.924,4.417 0.774,4.304C0.625,4.191 0.404,4.056 0.112,3.898C-0.196,3.731 -0.45,3.556 -0.649,3.374C-0.85,3.19 -1,2.988 -1.099,2.767C-1.199,2.546 -1.249,2.291 -1.249,1.999C-1.249,1.599 -1.151,1.25 -0.956,0.95C-0.76,0.65 -0.477,0.417 -0.106,0.25C0.264,0.084 0.712,0 1.237,0C1.662,0 2.053,0.05 2.411,0.15C2.769,0.25 3.094,0.375 3.386,0.525L2.886,1.649C2.661,1.533 2.411,1.424 2.136,1.325C1.861,1.224 1.566,1.174 1.25,1.174C0.975,1.174 0.756,1.241 0.593,1.375C0.431,1.507 0.35,1.682 0.35,1.899C0.35,2.016 0.377,2.124 0.431,2.224C0.485,2.324 0.585,2.423 0.731,2.524C0.876,2.624 1.079,2.745 1.337,2.886C1.628,3.044 1.882,3.212 2.099,3.392C2.315,3.571 2.482,3.771 2.599,3.992C2.715,4.212 2.773,4.477 2.773,4.785C2.773,5.276 2.661,5.689 2.436,6.022C2.211,6.355 1.889,6.605 1.468,6.771C1.047,6.938 0.558,7.021 0,7.021" style="fill:rgb(157,80,98);fill-rule:nonzero;"/>
                </g>
                <g transform="matrix(1,0,0,1,55.8375,122.9977)">
                    <path d="M0,-6.047C-0.233,-6.047 -0.427,-6.103 -0.581,-6.215C-0.735,-6.327 -0.812,-6.5 -0.812,-6.734C-0.812,-6.925 -0.775,-7.094 -0.7,-7.239C-0.625,-7.385 -0.515,-7.502 -0.369,-7.59C-0.223,-7.677 -0.046,-7.721 0.162,-7.721C0.404,-7.721 0.597,-7.664 0.743,-7.552C0.889,-7.44 0.962,-7.267 0.962,-7.033C0.962,-6.734 0.872,-6.494 0.693,-6.316C0.514,-6.136 0.283,-6.047 0,-6.047M-2.536,1.674L-1.1,-5.097L0.475,-5.097L-0.962,1.674L-2.536,1.674Z" style="fill:rgb(35,31,32);fill-rule:nonzero;"/>
                </g>
                <g transform="matrix(1,0,0,1,60.1841,116.451)">
                    <path d="M0,7.071C0.217,7.071 0.417,7.009 0.6,6.884C0.783,6.759 0.952,6.589 1.106,6.372C1.26,6.155 1.391,5.907 1.499,5.629C1.607,5.349 1.691,5.05 1.749,4.729C1.807,4.408 1.836,4.09 1.836,3.773C1.836,3.382 1.762,3.089 1.612,2.892C1.462,2.697 1.237,2.598 0.937,2.598C0.746,2.598 0.564,2.649 0.394,2.749C0.223,2.848 0.064,2.984 -0.081,3.155C-0.227,3.326 -0.358,3.521 -0.475,3.742C-0.591,3.963 -0.689,4.196 -0.768,4.441C-0.847,4.687 -0.908,4.935 -0.949,5.184C-0.991,5.434 -1.012,5.672 -1.012,5.897C-1.012,6.247 -0.924,6.53 -0.75,6.747C-0.575,6.963 -0.325,7.071 0,7.071M0.225,8.345C-0.066,8.345 -0.321,8.3 -0.537,8.208C-0.754,8.116 -0.939,7.989 -1.093,7.827C-1.247,7.665 -1.374,7.483 -1.474,7.284L-1.524,7.284L-1.899,8.22L-3.085,8.22L-1.074,-1.274L0.487,-1.274L0.075,0.675C0.025,0.884 -0.031,1.108 -0.094,1.349C-0.156,1.592 -0.216,1.814 -0.275,2.018C-0.333,2.222 -0.383,2.379 -0.425,2.486L-0.375,2.486C-0.208,2.278 -0.033,2.087 0.15,1.912C0.333,1.737 0.537,1.595 0.762,1.487C0.987,1.379 1.245,1.325 1.537,1.325C1.878,1.325 2.192,1.408 2.48,1.574C2.767,1.741 2.996,2.002 3.167,2.355C3.337,2.71 3.423,3.166 3.423,3.723C3.423,4.181 3.375,4.635 3.279,5.085C3.184,5.535 3.046,5.955 2.867,6.346C2.688,6.738 2.467,7.084 2.205,7.383C1.943,7.683 1.645,7.919 1.312,8.09C0.979,8.259 0.616,8.345 0.225,8.345" style="fill:rgb(35,31,32);fill-rule:nonzero;"/>
                </g>
                <g transform="matrix(1,0,0,1,66.9928,121.7856)">
                    <path d="M0,-0.999C0.483,-0.999 0.896,-1.047 1.237,-1.144C1.578,-1.238 1.841,-1.378 2.024,-1.561C2.207,-1.745 2.299,-1.961 2.299,-2.211C2.299,-2.411 2.236,-2.567 2.111,-2.68C1.986,-2.792 1.803,-2.849 1.562,-2.849C1.32,-2.849 1.081,-2.771 0.843,-2.617C0.606,-2.463 0.396,-2.249 0.212,-1.974C0.029,-1.699 -0.108,-1.374 -0.2,-0.999L0,-0.999ZM0.612,3.011C0.087,3.011 -0.368,2.913 -0.756,2.717C-1.143,2.522 -1.443,2.23 -1.655,1.843C-1.868,1.455 -1.974,0.979 -1.974,0.412C-1.974,-0.145 -1.895,-0.687 -1.736,-1.212C-1.578,-1.736 -1.345,-2.209 -1.037,-2.63C-0.729,-3.05 -0.35,-3.386 0.1,-3.636C0.55,-3.885 1.07,-4.01 1.662,-4.01C2.378,-4.01 2.913,-3.85 3.267,-3.529C3.621,-3.208 3.798,-2.786 3.798,-2.261C3.798,-1.92 3.719,-1.603 3.561,-1.311C3.402,-1.02 3.165,-0.769 2.849,-0.556C2.532,-0.344 2.128,-0.182 1.637,-0.068C1.145,0.044 0.562,0.1 -0.112,0.1L-0.387,0.1C-0.396,0.158 -0.402,0.217 -0.406,0.274C-0.41,0.333 -0.412,0.388 -0.412,0.438C-0.412,0.854 -0.298,1.185 -0.068,1.431C0.16,1.676 0.487,1.799 0.912,1.799C1.253,1.799 1.57,1.757 1.861,1.674C2.153,1.591 2.486,1.462 2.861,1.287L2.861,2.498C2.52,2.665 2.176,2.792 1.83,2.88C1.484,2.967 1.079,3.011 0.612,3.011" style="fill:rgb(35,31,32);fill-rule:nonzero;"/>
                </g>
                <g transform="matrix(1,0,0,1,71.6651,117.7754)">
                    <path d="M0,6.896L1.437,0.125L2.711,0.125L2.573,1.325L2.636,1.325C2.819,1.058 3.008,0.825 3.204,0.625C3.4,0.425 3.619,0.271 3.86,0.163C4.102,0.054 4.376,0 4.685,0C4.793,0 4.905,0.004 5.022,0.012C5.139,0.021 5.238,0.038 5.322,0.063L4.984,1.562C4.884,1.537 4.776,1.516 4.66,1.5C4.543,1.483 4.422,1.474 4.297,1.474C4.039,1.474 3.798,1.535 3.573,1.656C3.348,1.776 3.148,1.945 2.973,2.162C2.798,2.378 2.646,2.629 2.517,2.917C2.388,3.205 2.29,3.515 2.224,3.848L1.574,6.896L0,6.896Z" style="fill:rgb(35,31,32);fill-rule:nonzero;"/>
                </g>
                <g transform="matrix(1,0,0,1,77.087,117.7754)">
                    <path d="M0,6.896L1.437,0.125L2.648,0.125L2.523,1.375L2.573,1.375C2.74,1.125 2.927,0.895 3.136,0.687C3.344,0.479 3.579,0.312 3.841,0.188C4.104,0.063 4.397,0 4.722,0C5.188,0 5.548,0.125 5.803,0.375C6.057,0.625 6.217,0.974 6.284,1.424L6.333,1.424C6.508,1.158 6.704,0.917 6.921,0.7C7.137,0.483 7.383,0.312 7.658,0.188C7.933,0.063 8.232,0 8.557,0C9.107,0 9.523,0.163 9.807,0.488C10.089,0.812 10.231,1.262 10.231,1.836C10.231,2.011 10.219,2.188 10.194,2.368C10.169,2.546 10.135,2.736 10.094,2.936L9.257,6.896L7.695,6.896L8.557,2.835C8.59,2.669 8.615,2.524 8.632,2.399C8.649,2.274 8.657,2.158 8.657,2.049C8.657,1.791 8.601,1.597 8.489,1.468C8.376,1.339 8.203,1.274 7.97,1.274C7.762,1.274 7.56,1.336 7.364,1.461C7.168,1.586 6.985,1.768 6.814,2.005C6.644,2.243 6.49,2.528 6.353,2.861C6.215,3.194 6.104,3.569 6.021,3.985L5.409,6.896L3.848,6.896L4.709,2.835C4.743,2.669 4.768,2.526 4.785,2.405C4.801,2.285 4.81,2.173 4.81,2.074C4.81,1.807 4.755,1.608 4.647,1.474C4.539,1.341 4.368,1.274 4.135,1.274C3.927,1.274 3.725,1.336 3.529,1.461C3.333,1.586 3.148,1.77 2.973,2.011C2.798,2.253 2.642,2.544 2.505,2.886C2.367,3.227 2.252,3.615 2.161,4.047L1.562,6.896L0,6.896Z" style="fill:rgb(52,113,67);fill-rule:nonzero;"/>
                </g>
                <g transform="matrix(1,0,0,1,90.7911,121.7856)">
                    <path d="M0,-0.999C0.483,-0.999 0.896,-1.047 1.237,-1.144C1.578,-1.238 1.841,-1.378 2.024,-1.561C2.207,-1.745 2.299,-1.961 2.299,-2.211C2.299,-2.411 2.236,-2.567 2.111,-2.68C1.986,-2.792 1.803,-2.849 1.562,-2.849C1.32,-2.849 1.081,-2.771 0.843,-2.617C0.606,-2.463 0.396,-2.249 0.212,-1.974C0.029,-1.699 -0.108,-1.374 -0.2,-0.999L0,-0.999ZM0.612,3.011C0.087,3.011 -0.368,2.913 -0.756,2.717C-1.143,2.522 -1.443,2.23 -1.655,1.843C-1.868,1.455 -1.974,0.979 -1.974,0.412C-1.974,-0.145 -1.895,-0.687 -1.736,-1.212C-1.578,-1.736 -1.345,-2.209 -1.037,-2.63C-0.729,-3.05 -0.35,-3.386 0.1,-3.636C0.55,-3.885 1.07,-4.01 1.662,-4.01C2.378,-4.01 2.913,-3.85 3.267,-3.529C3.621,-3.208 3.798,-2.786 3.798,-2.261C3.798,-1.92 3.719,-1.603 3.561,-1.311C3.402,-1.02 3.165,-0.769 2.849,-0.556C2.532,-0.344 2.128,-0.182 1.637,-0.068C1.145,0.044 0.562,0.1 -0.112,0.1L-0.387,0.1C-0.396,0.158 -0.402,0.217 -0.406,0.274C-0.41,0.333 -0.412,0.388 -0.412,0.438C-0.412,0.854 -0.298,1.185 -0.068,1.431C0.16,1.676 0.487,1.799 0.912,1.799C1.253,1.799 1.57,1.757 1.861,1.674C2.153,1.591 2.486,1.462 2.861,1.287L2.861,2.498C2.52,2.665 2.176,2.792 1.83,2.88C1.484,2.967 1.079,3.011 0.612,3.011" style="fill:rgb(35,31,32);fill-rule:nonzero;"/>
                </g>
                <g transform="matrix(1,0,0,1,95.4635,117.7754)">
                    <path d="M0,6.896L1.437,0.125L2.711,0.125L2.573,1.325L2.636,1.325C2.819,1.058 3.008,0.825 3.204,0.625C3.4,0.425 3.619,0.271 3.86,0.163C4.102,0.054 4.376,0 4.685,0C4.793,0 4.905,0.004 5.022,0.012C5.139,0.021 5.238,0.038 5.322,0.063L4.984,1.562C4.884,1.537 4.776,1.516 4.66,1.5C4.543,1.483 4.422,1.474 4.297,1.474C4.039,1.474 3.798,1.535 3.573,1.656C3.348,1.776 3.148,1.945 2.973,2.162C2.798,2.378 2.646,2.629 2.517,2.917C2.388,3.205 2.29,3.515 2.224,3.848L1.574,6.896L0,6.896Z" style="fill:rgb(35,31,32);fill-rule:nonzero;"/>
                </g>
                <g transform="matrix(1,0,0,1,103.4337,116.451)">
                    <path d="M0,7.071C0.191,7.071 0.371,7.021 0.537,6.922C0.704,6.821 0.857,6.686 1,6.515C1.141,6.344 1.27,6.149 1.387,5.928C1.503,5.708 1.601,5.474 1.68,5.228C1.759,4.983 1.819,4.735 1.861,4.485C1.903,4.235 1.924,3.998 1.924,3.773C1.924,3.424 1.84,3.14 1.674,2.924C1.507,2.707 1.257,2.598 0.924,2.598C0.708,2.598 0.508,2.661 0.325,2.786C0.142,2.911 -0.027,3.082 -0.181,3.299C-0.335,3.515 -0.467,3.762 -0.575,4.042C-0.683,4.321 -0.769,4.619 -0.831,4.935C-0.893,5.252 -0.924,5.572 -0.924,5.897C-0.924,6.289 -0.846,6.582 -0.687,6.777C-0.529,6.973 -0.3,7.071 0,7.071M-0.625,8.345C-0.958,8.345 -1.268,8.262 -1.555,8.095C-1.843,7.929 -2.072,7.671 -2.243,7.321C-2.413,6.971 -2.499,6.509 -2.499,5.934C-2.499,5.476 -2.451,5.022 -2.355,4.573C-2.259,4.123 -2.122,3.705 -1.943,3.317C-1.764,2.929 -1.543,2.587 -1.281,2.287C-1.018,1.987 -0.721,1.752 -0.387,1.581C-0.054,1.41 0.308,1.325 0.7,1.325C0.982,1.325 1.224,1.373 1.424,1.468C1.624,1.564 1.794,1.691 1.936,1.849C2.078,2.008 2.199,2.186 2.298,2.386L2.361,2.386C2.369,2.295 2.382,2.168 2.398,2.006C2.415,1.843 2.438,1.666 2.467,1.474C2.496,1.283 2.527,1.095 2.561,0.912L3.023,-1.274L4.584,-1.274L2.573,8.22L1.362,8.22L1.474,7.196L1.424,7.196C1.257,7.421 1.072,7.619 0.868,7.79C0.664,7.961 0.439,8.095 0.193,8.195C-0.052,8.296 -0.325,8.345 -0.625,8.345" style="fill:rgb(35,31,32);fill-rule:nonzero;"/>
                </g>
                <g transform="matrix(1,0,0,1,110.5167,121.7856)">
                    <path d="M0,-0.999C0.483,-0.999 0.896,-1.047 1.237,-1.144C1.578,-1.238 1.841,-1.378 2.024,-1.561C2.207,-1.745 2.299,-1.961 2.299,-2.211C2.299,-2.411 2.236,-2.567 2.111,-2.68C1.986,-2.792 1.803,-2.849 1.562,-2.849C1.32,-2.849 1.081,-2.771 0.843,-2.617C0.606,-2.463 0.396,-2.249 0.212,-1.974C0.029,-1.699 -0.108,-1.374 -0.2,-0.999L0,-0.999ZM0.612,3.011C0.087,3.011 -0.368,2.913 -0.756,2.717C-1.143,2.522 -1.443,2.23 -1.655,1.843C-1.868,1.455 -1.974,0.979 -1.974,0.412C-1.974,-0.145 -1.895,-0.687 -1.736,-1.212C-1.578,-1.736 -1.345,-2.209 -1.037,-2.63C-0.729,-3.05 -0.35,-3.386 0.1,-3.636C0.55,-3.885 1.07,-4.01 1.662,-4.01C2.378,-4.01 2.913,-3.85 3.267,-3.529C3.621,-3.208 3.798,-2.786 3.798,-2.261C3.798,-1.92 3.719,-1.603 3.561,-1.311C3.402,-1.02 3.165,-0.769 2.849,-0.556C2.532,-0.344 2.128,-0.182 1.637,-0.068C1.145,0.044 0.562,0.1 -0.112,0.1L-0.387,0.1C-0.396,0.158 -0.402,0.217 -0.406,0.274C-0.41,0.333 -0.412,0.388 -0.412,0.438C-0.412,0.854 -0.298,1.185 -0.068,1.431C0.16,1.676 0.487,1.799 0.912,1.799C1.253,1.799 1.57,1.757 1.861,1.674C2.153,1.591 2.486,1.462 2.861,1.287L2.861,2.498C2.52,2.665 2.176,2.792 1.83,2.88C1.484,2.967 1.079,3.011 0.612,3.011" style="fill:rgb(35,31,32);fill-rule:nonzero;"/>
                </g>
                <g transform="matrix(1,0,0,1,115.1763,115.1774)">
                    <path d="M0,9.494L2.011,0L3.585,0L2.711,4.059C2.636,4.443 2.553,4.786 2.461,5.091C2.37,5.394 2.303,5.613 2.261,5.746L2.299,5.746L5.209,2.723L7.008,2.723L4.035,5.722L5.797,9.494L4.06,9.494L2.836,6.721L2.037,7.258L1.574,9.494L0,9.494Z" style="fill:rgb(35,31,32);fill-rule:nonzero;"/>
                </g>
                <g transform="matrix(1,0,0,1,124.9581,119.0633)">
                    <path d="M0,4.446C0.258,4.446 0.506,4.346 0.743,4.146C0.98,3.947 1.195,3.678 1.387,3.341C1.578,3.004 1.724,2.631 1.824,2.222C1.866,2.023 1.897,1.836 1.917,1.661C1.938,1.486 1.949,1.319 1.949,1.161C1.949,0.819 1.866,0.541 1.699,0.324C1.532,0.107 1.303,-0.001 1.012,-0.001C0.804,-0.001 0.606,0.059 0.418,0.18C0.231,0.3 0.058,0.466 -0.1,0.674C-0.258,0.882 -0.394,1.124 -0.506,1.398C-0.618,1.673 -0.706,1.97 -0.768,2.292C-0.831,2.612 -0.862,2.939 -0.862,3.272C-0.862,3.664 -0.787,3.957 -0.637,4.153C-0.487,4.348 -0.275,4.446 0,4.446M-0.6,5.733C-0.958,5.733 -1.276,5.647 -1.555,5.477C-1.834,5.306 -2.057,5.044 -2.224,4.69C-2.39,4.336 -2.474,3.876 -2.474,3.309C-2.474,2.877 -2.426,2.439 -2.33,1.998C-2.234,1.556 -2.097,1.138 -1.917,0.742C-1.739,0.346 -1.518,-0.003 -1.255,-0.307C-0.993,-0.611 -0.695,-0.851 -0.362,-1.026C-0.029,-1.2 0.337,-1.287 0.737,-1.287C1.02,-1.287 1.266,-1.24 1.474,-1.144C1.682,-1.048 1.861,-0.919 2.011,-0.757C2.161,-0.594 2.286,-0.409 2.386,-0.2L2.449,-0.2L2.823,-1.162L4.048,-1.162L2.611,5.608L1.362,5.608L1.487,4.558L1.437,4.558C1.27,4.767 1.085,4.963 0.881,5.146C0.677,5.329 0.454,5.472 0.212,5.577C-0.029,5.681 -0.3,5.733 -0.6,5.733" style="fill:rgb(35,31,32);fill-rule:nonzero;"/>
                </g>
                <g transform="matrix(1,0,0,1,130.4297,122.8965)">
                    <path d="M0,1.937C-0.25,1.937 -0.448,1.875 -0.593,1.75C-0.739,1.625 -0.812,1.438 -0.812,1.188C-0.812,0.83 -0.708,0.542 -0.5,0.326C-0.292,0.109 -0.008,0 0.35,0C0.591,0 0.785,0.066 0.931,0.195C1.076,0.324 1.149,0.517 1.149,0.776C1.149,1.133 1.051,1.416 0.856,1.625C0.66,1.833 0.375,1.937 0,1.937" style="fill:rgb(35,31,32);fill-rule:nonzero;"/>
                </g>
                <g transform="matrix(1,0,0,1,133.4156,117.7634)">
                    <path d="M0,6.908L1.449,0.125L2.686,0.125L2.561,1.374L2.598,1.374C2.765,1.124 2.954,0.895 3.167,0.686C3.379,0.478 3.618,0.312 3.885,0.187C4.151,0.062 4.451,0 4.785,0C5.159,0 5.478,0.075 5.74,0.224C6.002,0.375 6.2,0.587 6.333,0.862C6.467,1.137 6.533,1.466 6.533,1.848C6.533,2.015 6.519,2.194 6.49,2.386C6.46,2.577 6.429,2.769 6.396,2.961L5.559,6.908L3.973,6.908L4.822,2.836C4.864,2.678 4.893,2.536 4.909,2.411C4.926,2.286 4.935,2.17 4.935,2.061C4.935,1.803 4.874,1.611 4.753,1.486C4.632,1.361 4.451,1.299 4.21,1.299C3.935,1.299 3.667,1.409 3.404,1.63C3.142,1.85 2.906,2.167 2.698,2.579C2.49,2.992 2.323,3.485 2.199,4.059L1.586,6.908L0,6.908Z" style="fill:rgb(35,31,32);fill-rule:nonzero;"/>
                </g>
                <g transform="matrix(1,0,0,1,143.4092,121.7856)">
                    <path d="M0,-0.999C0.483,-0.999 0.896,-1.047 1.237,-1.144C1.578,-1.238 1.841,-1.378 2.024,-1.561C2.207,-1.745 2.299,-1.961 2.299,-2.211C2.299,-2.411 2.236,-2.567 2.111,-2.68C1.986,-2.792 1.803,-2.849 1.562,-2.849C1.32,-2.849 1.081,-2.771 0.843,-2.617C0.606,-2.463 0.396,-2.249 0.212,-1.974C0.029,-1.699 -0.108,-1.374 -0.2,-0.999L0,-0.999ZM0.612,3.011C0.087,3.011 -0.368,2.913 -0.756,2.717C-1.143,2.522 -1.443,2.23 -1.655,1.843C-1.868,1.455 -1.974,0.979 -1.974,0.412C-1.974,-0.145 -1.895,-0.687 -1.736,-1.212C-1.578,-1.736 -1.345,-2.209 -1.037,-2.63C-0.729,-3.05 -0.35,-3.386 0.1,-3.636C0.55,-3.885 1.07,-4.01 1.662,-4.01C2.378,-4.01 2.913,-3.85 3.267,-3.529C3.621,-3.208 3.798,-2.786 3.798,-2.261C3.798,-1.92 3.719,-1.603 3.561,-1.311C3.402,-1.02 3.165,-0.769 2.849,-0.556C2.532,-0.344 2.128,-0.182 1.637,-0.068C1.145,0.044 0.562,0.1 -0.112,0.1L-0.387,0.1C-0.396,0.158 -0.402,0.217 -0.406,0.274C-0.41,0.333 -0.412,0.388 -0.412,0.438C-0.412,0.854 -0.298,1.185 -0.068,1.431C0.16,1.676 0.487,1.799 0.912,1.799C1.253,1.799 1.57,1.757 1.861,1.674C2.153,1.591 2.486,1.462 2.861,1.287L2.861,2.498C2.52,2.665 2.176,2.792 1.83,2.88C1.484,2.967 1.079,3.011 0.612,3.011" style="fill:rgb(35,31,32);fill-rule:nonzero;"/>
                </g>
                <g transform="matrix(1,0,0,1,150.23,116.4264)">
                    <path d="M0,8.37C-0.5,8.37 -0.908,8.258 -1.224,8.033C-1.541,7.808 -1.699,7.408 -1.699,6.833C-1.699,6.725 -1.692,6.606 -1.68,6.477C-1.667,6.349 -1.645,6.213 -1.611,6.071L-0.887,2.661L-1.861,2.661L-1.711,1.911L-0.537,1.412L0.25,0L1.237,0L0.925,1.474L2.624,1.474L2.374,2.661L0.675,2.661L-0.05,6.084C-0.066,6.159 -0.083,6.24 -0.1,6.327C-0.117,6.415 -0.125,6.496 -0.125,6.571C-0.125,6.738 -0.073,6.869 0.031,6.965C0.135,7.06 0.279,7.108 0.462,7.108C0.621,7.108 0.775,7.09 0.925,7.052C1.075,7.015 1.237,6.967 1.412,6.908L1.412,8.083C1.253,8.157 1.05,8.224 0.8,8.282C0.55,8.341 0.283,8.37 0,8.37" style="fill:rgb(35,31,32);fill-rule:nonzero;"/>
                </g>
                <g transform="matrix(1,0,0,1,139.2154,88.7685)">
                    <path d="M0,0.012C-4.482,11.13 -19.08,20.144 -32.611,20.144C-38.134,20.144 -42.593,18.633 -45.676,16.105L-45.676,16.094L-47.523,16.094C-51.699,11.921 -52.698,5.841 -50.154,-0.455C-47.714,-6.516 -42.383,-12.119 -35.361,-16.081L-32.719,-16.081C-32.52,-16.177 -32.321,-16.276 -32.122,-16.368C-27.162,-18.724 -21.7,-20.132 -16.384,-20.132C-2.857,-20.132 4.482,-11.117 0.004,0.008L0,0.012Z" style="fill:rgb(52,113,67);fill-rule:nonzero;"/>
                </g>
                <g transform="matrix(1,0,0,1,111.0939,94.8074)">
                    <path d="M0,-12.07L0,-11.955C0,-11.84 -0.008,-11.725 -0.015,-11.607L-0.015,-11.569C-0.019,-11.465 -0.027,-11.362 -0.034,-11.259C-0.034,-11.232 -0.034,-11.201 -0.042,-11.175C-0.05,-11.064 -0.061,-10.953 -0.073,-10.842C-0.084,-10.712 -0.099,-10.586 -0.119,-10.456C-0.134,-10.326 -0.153,-10.196 -0.172,-10.066L-0.172,-10.05L-18.759,-10.05C-19.187,-9.393 -19.585,-8.719 -19.941,-8.039L-0.616,-8.039C-0.654,-7.905 -0.692,-7.771 -0.734,-7.637C-0.761,-7.549 -0.788,-7.465 -0.818,-7.377C-0.826,-7.346 -0.838,-7.32 -0.845,-7.293C-0.872,-7.209 -0.899,-7.125 -0.929,-7.04C-0.956,-6.956 -0.987,-6.872 -1.017,-6.788C-1.105,-6.536 -1.205,-6.283 -1.308,-6.027L-20.878,-6.027C-21.153,-5.346 -21.379,-4.677 -21.566,-4.015L-2.241,-4.015C-2.241,-4.015 -2.256,-3.985 -2.264,-3.969C-2.352,-3.801 -2.444,-3.629 -2.539,-3.465C-2.589,-3.38 -2.635,-3.296 -2.681,-3.212C-2.914,-2.807 -3.159,-2.405 -3.419,-2.007L-22.006,-2.007C-22.113,-1.323 -22.171,-0.65 -22.182,0.004L-4.861,0.004C-4.93,0.088 -4.999,0.176 -5.064,0.261C-5.546,0.861 -6.05,1.446 -6.586,2.016L-22.075,2.016C-21.987,2.708 -21.838,3.377 -21.643,4.028L-8.632,4.028C-8.727,4.116 -8.823,4.2 -8.923,4.288L-9.217,4.544C-9.316,4.628 -9.416,4.716 -9.515,4.8C-9.718,4.972 -9.917,5.137 -10.123,5.301C-10.227,5.385 -10.33,5.466 -10.433,5.55C-10.536,5.634 -10.64,5.714 -10.743,5.795C-10.846,5.875 -10.953,5.955 -11.057,6.035L-20.832,6.035C-20.469,6.743 -20.033,7.416 -19.532,8.047L-13.967,8.047C-14.074,8.116 -14.181,8.181 -14.292,8.25C-14.403,8.319 -14.514,8.388 -14.629,8.456C-15.019,8.694 -15.417,8.919 -15.818,9.145C-15.914,9.195 -16.005,9.248 -16.101,9.298C-16.583,9.562 -17.069,9.814 -17.562,10.059C-22.683,12.598 -28.397,14.105 -33.927,14.105C-39.457,14.105 -43.928,12.587 -47.014,10.047C-51.459,6.368 -52.969,0.544 -50.315,-6.031C-47.672,-12.605 -41.473,-18.43 -34.057,-22.105C-28.932,-24.641 -23.238,-26.167 -17.7,-26.167C-12.162,-26.167 -7.672,-24.66 -4.593,-22.117C-4.601,-22.117 -4.609,-22.109 -4.616,-22.105C-5.844,-21.497 -7.037,-20.828 -8.188,-20.109L-2.62,-20.109C-2.62,-20.109 -2.612,-20.101 -2.608,-20.093C-2.559,-20.028 -2.505,-19.96 -2.455,-19.895C-2.44,-19.875 -2.425,-19.856 -2.409,-19.837C-2.36,-19.768 -2.306,-19.7 -2.256,-19.627C-2.084,-19.386 -1.916,-19.133 -1.763,-18.877C-1.725,-18.812 -1.687,-18.747 -1.648,-18.682C-1.58,-18.567 -1.518,-18.453 -1.453,-18.338C-1.411,-18.258 -1.369,-18.181 -1.331,-18.101L-11.106,-18.101C-11.952,-17.458 -12.766,-16.789 -13.539,-16.089L-0.528,-16.089C-0.516,-16.055 -0.509,-16.024 -0.497,-15.994C-0.49,-15.967 -0.482,-15.944 -0.474,-15.913C-0.455,-15.837 -0.432,-15.764 -0.413,-15.688C-0.371,-15.538 -0.337,-15.385 -0.302,-15.233C-0.283,-15.148 -0.264,-15.06 -0.249,-14.972C-0.207,-14.766 -0.168,-14.552 -0.138,-14.338C-0.122,-14.253 -0.111,-14.165 -0.103,-14.081L-15.596,-14.081C-16.208,-13.427 -16.782,-12.758 -17.325,-12.07L0,-12.07Z" style="fill:rgb(157,80,98);fill-rule:nonzero;"/>
                </g>
                <g transform="matrix(1,0,0,1,75.7511,82.9973)">
                    <path d="M0,12.2C-0.738,12.2 -1.393,12.135 -1.964,12.004C-2.537,11.874 -3.032,11.7 -3.452,11.483L-3.452,9.139C-2.974,9.429 -2.453,9.66 -1.889,9.834C-1.324,10.007 -0.746,10.094 -0.152,10.094C0.282,10.094 0.662,10.04 0.988,9.931C1.313,9.823 1.57,9.664 1.758,9.454C1.946,9.244 2.041,8.987 2.041,8.683C2.041,8.437 1.99,8.224 1.889,8.043C1.787,7.862 1.606,7.674 1.346,7.478C1.085,7.283 0.702,7.048 0.195,6.773C-0.34,6.483 -0.781,6.179 -1.129,5.861C-1.476,5.543 -1.737,5.192 -1.91,4.808C-2.084,4.425 -2.171,3.98 -2.171,3.473C-2.171,2.778 -2.001,2.17 -1.661,1.649C-1.321,1.128 -0.829,0.723 -0.185,0.434C0.459,0.144 1.237,0 2.149,0C2.887,0 3.567,0.086 4.19,0.26C4.812,0.434 5.376,0.651 5.883,0.911L5.015,2.865C4.624,2.662 4.19,2.474 3.712,2.301C3.235,2.127 2.721,2.04 2.171,2.04C1.693,2.04 1.313,2.156 1.031,2.387C0.749,2.619 0.608,2.923 0.608,3.299C0.608,3.502 0.655,3.69 0.749,3.864C0.843,4.037 1.017,4.211 1.27,4.385C1.523,4.558 1.874,4.768 2.323,5.014C2.829,5.289 3.271,5.582 3.647,5.893C4.023,6.205 4.312,6.552 4.516,6.935C4.718,7.319 4.819,7.779 4.819,8.314C4.819,9.168 4.624,9.885 4.233,10.463C3.842,11.042 3.281,11.476 2.551,11.765C1.82,12.055 0.97,12.2 0,12.2" style="fill:white;fill-rule:nonzero;"/>
                </g>
                <g transform="matrix(1,0,0,1,112.3746,82.997)">
                    <path d="M0,11.983L2.497,0.217L4.602,0.217L4.385,2.388L4.472,2.388C4.761,1.954 5.087,1.556 5.449,1.194C5.811,0.832 6.22,0.543 6.675,0.325C7.131,0.108 7.642,0 8.206,0C9.016,0 9.642,0.217 10.083,0.651C10.525,1.085 10.804,1.693 10.919,2.475L11.006,2.475C11.31,2.012 11.65,1.592 12.027,1.215C12.403,0.839 12.83,0.543 13.308,0.325C13.785,0.108 14.306,0 14.871,0C15.826,0 16.549,0.282 17.041,0.846C17.533,1.411 17.779,2.192 17.779,3.191C17.779,3.495 17.758,3.803 17.714,4.114C17.671,4.425 17.613,4.754 17.541,5.101L16.086,11.983L13.373,11.983L14.871,4.928C14.928,4.638 14.972,4.385 15,4.168C15.029,3.951 15.044,3.748 15.044,3.56C15.044,3.111 14.946,2.775 14.751,2.55C14.556,2.326 14.255,2.214 13.85,2.214C13.488,2.214 13.137,2.323 12.797,2.54C12.457,2.757 12.139,3.071 11.842,3.484C11.545,3.897 11.278,4.393 11.039,4.971C10.8,5.55 10.608,6.201 10.463,6.925L9.4,11.983L6.687,11.983L8.184,4.928C8.242,4.638 8.285,4.389 8.314,4.179C8.343,3.969 8.358,3.777 8.358,3.604C8.358,3.141 8.264,2.793 8.076,2.562C7.887,2.33 7.591,2.214 7.186,2.214C6.824,2.214 6.473,2.323 6.133,2.54C5.792,2.757 5.471,3.075 5.167,3.495C4.863,3.915 4.591,4.421 4.353,5.015C4.114,5.608 3.915,6.281 3.756,7.033L2.714,11.983L0,11.983Z" style="fill:white;fill-rule:nonzero;"/>
                </g>
            </g>
        </g>
    </g>
</svg>
